<svg xmlns="http://www.w3.org/2000/svg" viewBox="0 0 520 170" role="img" aria-label="Autocor Siempre nuevos">
  <rect width="520" height="170" fill="white"/>
  <path d="M11 76c18-39 60-45 101-47 42-2 59-26 97-29 40-3 68 26 109 28 38 2 75-14 111-7" fill="none" stroke="#ef3d35" stroke-width="10" stroke-linecap="round"/>
  <path d="M105 52c42-30 100 2 149-16 37-14 45-40 93-28 0 18 0 31 0 45h145" fill="none" stroke="#8d8d92" stroke-width="10" stroke-linecap="round" stroke-linejoin="round"/>
  <text x="33" y="124" font-family="Arial, Helvetica, sans-serif" font-size="76" font-weight="800" fill="#74757b">AUTO</text>
  <text x="284" y="124" font-family="Arial, Helvetica, sans-serif" font-size="76" font-weight="800" fill="#ef3d35">COR</text>
  <circle cx="245" cy="98" r="32" fill="none" stroke="#74757b" stroke-width="6"/>
  <circle cx="245" cy="98" r="7" fill="#74757b"/>
  <path d="M245 98V70M245 98l-23 17M245 98l23 17" stroke="#74757b" stroke-width="5" stroke-linecap="round"/>
  <text x="283" y="154" font-family="Arial, Helvetica, sans-serif" font-size="28" font-style="italic" fill="#8d8d92">Siempre nuevos.</text>
</svg>
